<svg xmlns="http://www.w3.org/2000/svg" width="49.514" height="43.328" viewBox="0 0 49.514 43.328">
  <g id="Group_135" data-name="Group 135" transform="translate(-124.765 -497.557)">
    <path id="Path_484" data-name="Path 484" d="M152.625,335.487l-2.063-4.125a1.031,1.031,0,0,0-1.219-.526L139.03,333.93a.991.991,0,0,0-.235.1l-5.008,3.022-5.156,2.063a1.031,1.031,0,0,0-.576,1.34q.016.04.036.079l2.063,4.125a1.031,1.031,0,0,0,.924.569,1,1,0,0,0,.3-.043l10.313-3.094a.993.993,0,0,0,.235-.1l5.008-3.022,5.156-2.063a1.031,1.031,0,0,0,.575-1.341c-.01-.026-.022-.052-.034-.077Z" transform="translate(9.158 195.655)" fill="#f72585"/>
    <g id="Group_135-2" data-name="Group 135" transform="translate(124.765 497.557)">
      <path id="Path_485" data-name="Path 485" d="M34.046,111.908a1.031,1.031,0,0,1-1.031-1.031V78.36a1.029,1.029,0,0,0-.109-.46l-.815-1.627a1.032,1.032,0,1,1,1.846-.922l.815,1.627a3.1,3.1,0,0,1,.326,1.382v32.517A1.031,1.031,0,0,1,34.046,111.908Z" transform="translate(-28.889 -70.642)" fill="#455a64"/>
      <path id="Path_486" data-name="Path 486" d="M43.7,40.389a1.031,1.031,0,0,1-.858-1.6L46.97,32.6a1.031,1.031,0,1,1,1.716,1.145l-4.125,6.188A1.031,1.031,0,0,1,43.7,40.389Z" transform="translate(-38.546 -32.124)" fill="#455a64"/>
      <path id="Path_487" data-name="Path 487" d="M1.031,403.047A1.031,1.031,0,0,1,0,402.016c0-2.9,1.374-7.219,5.156-7.219,4.36,0,5.119,6.823,5.156,7.112a1.031,1.031,0,0,1-2.05.206c-.146-1.365-1.031-5.266-3.094-5.266-2.974.01-3.106,5.115-3.106,5.167A1.031,1.031,0,0,1,1.031,403.047Z" transform="translate(0 -359.719)" fill="#455a64"/>
      <path id="Path_488" data-name="Path 488" d="M308.626,76.86H289.031a1.031,1.031,0,0,1,0-2.063h19.595a1.031,1.031,0,1,1,0,2.063Z" transform="translate(-260.155 -70.658)" fill="#455a64"/>
      <path id="Path_489" data-name="Path 489" d="M2.172,35.352a1.031,1.031,0,0,1-.73-.3L.41,34.02a1.031,1.031,0,0,1,1.458-1.458L2.9,33.593a1.031,1.031,0,0,1-.728,1.759Z" transform="translate(-0.109 -32.245)" fill="#455a64"/>
      <path id="Path_490" data-name="Path 490" d="M449.031,111.908A1.031,1.031,0,0,1,448,110.877V78.36a3.092,3.092,0,0,1,.326-1.382l.815-1.627a1.032,1.032,0,1,1,1.846.922l-.815,1.627a1.032,1.032,0,0,0-.109.46v32.517A1.031,1.031,0,0,1,449.031,111.908Z" transform="translate(-404.686 -70.642)" fill="#455a64"/>
      <path id="Path_491" data-name="Path 491" d="M410.468,40.369a1.032,1.032,0,0,1-.86-.46l-4.125-6.188a1.031,1.031,0,0,1,1.716-1.145l4.125,6.188a1.031,1.031,0,0,1-.856,1.6Z" transform="translate(-366.122 -32.105)" fill="#455a64"/>
      <path id="Path_492" data-name="Path 492" d="M406.307,403.048H406.2a1.031,1.031,0,0,1-.925-1.127v-.011c.031-.291.79-7.112,5.156-7.112,3.783,0,5.156,4.317,5.156,7.219a1.031,1.031,0,1,1-2.063,0c0-.052-.132-5.156-3.094-5.156-2.083,0-2.958,3.9-3.094,5.264A1.031,1.031,0,0,1,406.307,403.048Z" transform="translate(-366.087 -359.72)" fill="#455a64"/>
      <path id="Path_493" data-name="Path 493" d="M481.014,35.1a1.031,1.031,0,0,1-.73-1.761l1.031-1.031a1.031,1.031,0,1,1,1.484,1.433l-.025.025-1.031,1.031A1.032,1.032,0,0,1,481.014,35.1Z" transform="translate(-433.574 -31.989)" fill="#455a64"/>
    </g>
    <path id="Path_494" data-name="Path 494" d="M152.667,339.712a1.031,1.031,0,0,0-.582-.59l-20.626-8.25a1.031,1.031,0,0,0-1.306.5l-2.063,4.125a1.031,1.031,0,0,0,.461,1.384q.039.019.079.035l20.626,8.25a1.031,1.031,0,0,0,1.306-.5l2.063-4.125A1.031,1.031,0,0,0,152.667,339.712Z" transform="translate(9.157 195.65)" fill="#f72585"/>
    <ellipse id="Ellipse_49" data-name="Ellipse 49" cx="5" cy="6" rx="5" ry="6" transform="translate(144.461 501.15)" fill="#7209b7"/>
    <path id="Subtraction_3" data-name="Subtraction 3" d="M5.282,11.27a5.088,5.088,0,0,1-3.735-1.65A5.793,5.793,0,0,1,0,5.635,5.792,5.792,0,0,1,1.547,1.65,5.088,5.088,0,0,1,5.282,0,4.98,4.98,0,0,1,6.868.258a5.584,5.584,0,0,0-3.7,5.377,5.585,5.585,0,0,0,3.7,5.377A4.98,4.98,0,0,1,5.282,11.27Z" transform="translate(144.218 501.235)" fill="#fff" opacity="0.34"/>
    <path id="Path_495" data-name="Path 495" d="M203.344,64.808a1.031,1.031,0,0,1-1.031-1.031c0-4.862-2.174-8.25-4.125-8.25s-4.125,3.389-4.125,8.25a1.031,1.031,0,1,1-2.062,0c0-5.775,2.718-10.313,6.188-10.313s6.188,4.538,6.188,10.313A1.031,1.031,0,0,1,203.344,64.808Z" transform="translate(-48.672 446.17)" fill="#607d8b"/>
    <path id="Path_496" data-name="Path 496" d="M166.865,160.131H152.427c-2.945,0-3.094,5.156-3.094,6.188a10.313,10.313,0,0,0,20.626,0C169.959,165.287,169.81,160.131,166.865,160.131Z" transform="translate(-10.13 349.816)" fill="#a8e0e2"/>
    <path id="Path_497" data-name="Path 497" d="M21.157,76.86H.92a1.038,1.038,0,0,1,0-2.063H21.157a1.038,1.038,0,0,1,0,2.063Z" transform="translate(124.765 426.899)" fill="#4e4466"/>
    <path id="Path_498" data-name="Path 498" d="M34.046,111.908a1.031,1.031,0,0,1-1.031-1.031V78.36a1.029,1.029,0,0,0-.109-.46l-.815-1.627a1.032,1.032,0,1,1,1.846-.922l.815,1.627a3.109,3.109,0,0,1,.326,1.382v32.517A1.031,1.031,0,0,1,34.046,111.908Z" transform="translate(95.876 426.915)" fill="#4e4466"/>
    <path id="Path_499" data-name="Path 499" d="M43.7,40.389a1.031,1.031,0,0,1-.858-1.6L46.97,32.6a1.031,1.031,0,1,1,1.716,1.145l-4.125,6.188A1.031,1.031,0,0,1,43.7,40.389Z" transform="translate(86.218 465.433)" fill="#4e4466"/>
    <path id="Path_500" data-name="Path 500" d="M1.031,403.047A1.031,1.031,0,0,1,0,402.016c0-2.9,1.374-7.219,5.156-7.219,4.36,0,5.119,6.823,5.156,7.112a1.031,1.031,0,0,1-2.05.206c-.153-1.357-1.044-5.255-3.106-5.255-2.962,0-3.094,5.1-3.094,5.156A1.031,1.031,0,0,1,1.031,403.047Z" transform="translate(124.765 137.838)" fill="#4e4466"/>
    <path id="Path_501" data-name="Path 501" d="M203.344,64.808a1.031,1.031,0,0,1-1.031-1.031c0-4.862-2.174-8.25-4.125-8.25s-4.125,3.389-4.125,8.25a1.031,1.031,0,1,1-2.062,0c0-5.775,2.718-10.313,6.188-10.313s6.188,4.538,6.188,10.313A1.031,1.031,0,0,1,203.344,64.808Z" transform="translate(-48.672 446.17)" fill="#4e4466"/>
    <path id="Subtraction_2" data-name="Subtraction 2" d="M10.313,16.5A10.313,10.313,0,0,1,0,6.188C0,5.154.149,0,3.094,0H5.7C4.333,1.429,4.226,4.559,4.226,5.484a10.287,10.287,0,0,0,9.863,10.3A10.264,10.264,0,0,1,10.313,16.5Z" transform="translate(139.203 509.947)" fill="#fff" opacity="0.34"/>
    <path id="Path_502" data-name="Path 502" d="M159.646,176.631a10.325,10.325,0,0,1-10.313-10.313c0-1.031.148-6.188,3.094-6.188h14.438c2.945,0,3.094,5.156,3.094,6.188A10.325,10.325,0,0,1,159.646,176.631Zm-7.219-14.438c-.448,0-1.031,2-1.031,4.125a8.25,8.25,0,0,0,16.5,0c0-2.124-.584-4.125-1.031-4.125Z" transform="translate(-10.13 349.817)" fill="#4e4466"/>
    <path id="Path_504" data-name="Path 504" d="M308.626,76.86H289.031a1.031,1.031,0,0,1,0-2.063h19.595a1.031,1.031,0,1,1,0,2.063Z" transform="translate(-135.39 426.899)" fill="#4e4466"/>
    <path id="Path_505" data-name="Path 505" d="M2.172,35.352a1.031,1.031,0,0,1-.73-.3L.41,34.02a1.031,1.031,0,0,1,1.458-1.458L2.9,33.593a1.031,1.031,0,0,1-.728,1.759Z" transform="translate(124.656 465.313)" fill="#4e4466"/>
    <path id="Path_506" data-name="Path 506" d="M449.031,111.908A1.031,1.031,0,0,1,448,110.877V78.36a3.107,3.107,0,0,1,.326-1.382l.815-1.627a1.032,1.032,0,1,1,1.846.922l-.815,1.627a1.032,1.032,0,0,0-.109.46v32.517A1.031,1.031,0,0,1,449.031,111.908Z" transform="translate(-279.921 426.915)" fill="#4e4466"/>
    <path id="Path_507" data-name="Path 507" d="M410.468,40.369a1.032,1.032,0,0,1-.86-.46l-4.125-6.188a1.031,1.031,0,0,1,1.716-1.145l4.125,6.188a1.031,1.031,0,0,1-.856,1.6Z" transform="translate(-241.358 465.453)" fill="#4e4466"/>
    <path id="Path_508" data-name="Path 508" d="M406.307,403.048H406.2a1.031,1.031,0,0,1-.925-1.127v-.011c.031-.291.79-7.112,5.156-7.112,3.783,0,5.156,4.317,5.156,7.219a1.031,1.031,0,1,1-2.063,0c0-.052-.132-5.156-3.094-5.156-2.083,0-2.958,3.9-3.094,5.264A1.031,1.031,0,0,1,406.307,403.048Z" transform="translate(-241.322 137.837)" fill="#4e4466"/>
    <path id="Path_509" data-name="Path 509" d="M481.014,35.1a1.031,1.031,0,0,1-.73-1.761l1.031-1.031a1.031,1.031,0,1,1,1.484,1.433l-.025.025-1.031,1.031A1.032,1.032,0,0,1,481.014,35.1Z" transform="translate(-308.81 465.568)" fill="#4e4466"/>
    <path id="Path_510" data-name="Path 510" d="M242.866,339.043a1.031,1.031,0,0,1-.384-1.988l4.125-1.65-1.182-2.343-9.488,2.844a1.031,1.031,0,0,1-.592-1.976l10.313-3.094a1.031,1.031,0,0,1,1.219.526l2.063,4.125a1.031,1.031,0,0,1-.461,1.384q-.039.019-.079.035l-5.156,2.063A1.032,1.032,0,0,1,242.866,339.043Z" transform="translate(-87.163 195.655)" fill="#4e4466"/>
    <path id="Path_511" data-name="Path 511" d="M149.64,345.22a1.032,1.032,0,0,1-.384-.074L128.63,336.9a1.031,1.031,0,0,1-.576-1.34q.016-.04.035-.079l2.063-4.125a1.031,1.031,0,0,1,1.306-.5l20.626,8.25a1.031,1.031,0,0,1,.576,1.34q-.016.04-.035.079l-2.063,4.125A1.031,1.031,0,0,1,149.64,345.22Zm-19.2-9.822,18.7,7.481,1.137-2.269-18.7-7.487Z" transform="translate(9.158 195.665)" fill="#4e4466"/>
    <path id="Path_512" data-name="Path 512" d="M131.1,403.051a1.031,1.031,0,0,1-.922-.569l-2.063-4.125a1.031,1.031,0,0,1,.461-1.384q.039-.019.079-.035l5.156-2.063a1.032,1.032,0,0,1,.765,1.916l-4.125,1.65,1.182,2.341,9.488-2.844a1.031,1.031,0,1,1,.592,1.976h0L131.4,403.008A1.03,1.03,0,0,1,131.1,403.051Z" transform="translate(9.138 137.835)" fill="#4e4466"/>
  </g>
</svg>
