<svg xmlns="http://www.w3.org/2000/svg" width="43.521" height="43.509" viewBox="0 0 43.521 43.509">
  <g id="fishing" transform="translate(0 -0.066)">
    <path id="Path_464" data-name="Path 464" d="M29.681,176.428,18.6,197.522l6.435.358a6.665,6.665,0,0,1,4.29-5.363v5.005a64.92,64.92,0,0,1,7.151,5.363s-7.151,1.788-10.726-2.86c0,0-5.005,2.5-9.653,1.43C8.052,199.6,5.726,191.087,9.659,183.579S24.318,173.568,29.681,176.428Z" transform="translate(-7.126 -160.318)" fill="#f72585"/>
    <path id="Path_465" data-name="Path 465" d="M26.11,325.466s-5.005,2.5-9.653,1.43c-6.18-1.426-8.983-6.782-8.167-12.592-1.705,6.458,1.007,12.79,7.81,14.36,4.648,1.073,9.653-1.43,9.653-1.43,3.575,4.648,10.726,2.86,10.726,2.86-.568-.5-1.157-1-1.744-1.468C32.34,328.795,28.456,328.515,26.11,325.466Z" transform="translate(-7.131 -287.527)" fill="#fff" opacity="0.34"/>
    <path id="Path_466" data-name="Path 466" d="M109.633,176.039c-3.6-1.414-8.976-.825-13.339,1.685a7.154,7.154,0,0,0,9.121,8.4l4.69-8.925.4-.757A8.236,8.236,0,0,0,109.633,176.039Z" transform="translate(-87.948 -160.327)" fill="#a8e0e2"/>
    <circle id="Ellipse_44" data-name="Ellipse 44" cx="1.073" cy="1.073" r="1.073" transform="translate(12.902 17.54)" fill="#a8e0e2"/>
    <circle id="Ellipse_45" data-name="Ellipse 45" cx="3.933" cy="3.933" r="3.933" transform="translate(33.996 10.032)" fill="#7209b7"/>
    <path id="Path_467" data-name="Path 467" d="M401.641,121.247a3.933,3.933,0,0,1,3.08-3.839,3.933,3.933,0,1,0,0,7.678A3.933,3.933,0,0,1,401.641,121.247Z" transform="translate(-365.941 -107.281)" fill="#fff" opacity="0.34"/>
    <path id="Path_468" data-name="Path 468" d="M232.037,15.308c-.508,1.5-4.549,4.5-4.549,4.5s-1.375-4.841-.867-6.337a2.86,2.86,0,1,1,5.416,1.841Z" transform="translate(-207.254 -10.486)" fill="#a8e0e2"/>
    <path id="Path_469" data-name="Path 469" d="M228.05,14.181a2.861,2.861,0,0,1,3.221-1.893,2.86,2.86,0,0,0-4.651,1.178c-.508,1.5.867,6.337.867,6.337s.437-.324,1.041-.813C228.165,17.438,227.726,15.132,228.05,14.181Z" transform="translate(-207.253 -10.485)" fill="#fff" opacity="0.34"/>
    <path id="Path_470" data-name="Path 470" d="M343.7,375.224c-1.5-.487-4.559-4.485-4.559-4.485s4.821-1.444,6.324-.957a2.86,2.86,0,1,1-1.764,5.442Z" transform="translate(-310.31 -338.198)" fill="#a8e0e2"/>
    <path id="Path_471" data-name="Path 471" d="M347.3,379.565a2.86,2.86,0,0,1-3.6,1.839c-.9-.293-2.37-1.856-3.395-3.056-.693.179-1.164.32-1.164.32s3.057,4,4.559,4.485a2.86,2.86,0,0,0,3.6-3.595Z" transform="translate(-310.31 -346.127)" fill="#fff" opacity="0.34"/>
    <path id="Path_472" data-name="Path 472" d="M29.544,69.479c1.09,1.144,1.875,6.115,1.875,6.115s-4.927-1.025-6.017-2.168a2.86,2.86,0,0,1,4.141-3.946Z" transform="translate(-22.521 -62.701)" fill="#a8e0e2"/>
    <path id="Path_473" data-name="Path 473" d="M26.82,73.015a2.862,2.862,0,0,1,.433-4.318A2.86,2.86,0,0,0,25.4,73.521c1.09,1.144,6.017,2.168,6.017,2.168s-.055-.347-.156-.88C29.723,74.411,27.508,73.737,26.82,73.015Z" transform="translate(-22.522 -62.797)" fill="#fff" opacity="0.34"/>
    <g id="Group_134" data-name="Group 134" transform="translate(4.595 2.882)" opacity="0.34">
      <circle id="Ellipse_46" data-name="Ellipse 46" cx="0.894" cy="0.894" r="0.894" transform="translate(17.519)" fill="#fff"/>
      <circle id="Ellipse_47" data-name="Ellipse 47" cx="0.894" cy="0.894" r="0.894" transform="translate(29.317 30.032)" fill="#fff"/>
      <circle id="Ellipse_48" data-name="Ellipse 48" cx="0.894" cy="0.894" r="0.894" transform="translate(0 4.29)" fill="#fff"/>
    </g>
    <path id="Path_474" data-name="Path 474" d="M400.23,132.5l6.953,2.928a3.916,3.916,0,0,0,.887-2.488c0-.016,0-.032,0-.049l-6.644-2.8A3.92,3.92,0,0,0,400.23,132.5Z" transform="translate(-366.21 -118.979)" fill="#7209b7"/>
    <path id="Path_475" data-name="Path 475" d="M402.67,130.621l-1.244-.524a3.921,3.921,0,0,0-1.2,2.406l1.69.711c-.006-.09-.01-.18-.01-.272A3.914,3.914,0,0,1,402.67,130.621Z" transform="translate(-366.211 -118.978)" fill="#fff" opacity="0.34"/>
    <path id="Path_476" data-name="Path 476" d="M143.887,199.5a1.743,1.743,0,1,0,1.743-1.743A1.745,1.745,0,0,0,143.887,199.5Zm2.145,0a.4.4,0,1,1-.4-.4A.4.4,0,0,1,146.032,199.5Z" transform="translate(-131.656 -180.886)" fill="#4e4466"/>
    <path id="Path_477" data-name="Path 477" d="M43.092.112a.67.67,0,0,0-.867.383c-.19.492-1.686,4.5-3.273,8.983a4.6,4.6,0,0,0-2.914,8.683c-.066.219-.128.429-.184.624-1.754,6.09-3.793,6.961-4.376,7.083a1.294,1.294,0,0,1-1.321-.519c-.731-.88-1.1-2.835-.19-5.051,1.452-3.527,3.7-9.868,2.465-12.712a2.473,2.473,0,0,0-1.419-1.4c-1.89-.709-4.015.768-6.316,4.39a39.321,39.321,0,0,0-2.477,4.631A15.38,15.38,0,0,0,11.9,15.129,16.643,16.643,0,0,0,1.939,22.95C-.3,27.225-.62,31.991,1.084,35.7A10.953,10.953,0,0,0,8.818,41.79a11.687,11.687,0,0,0,2.629.286,18.505,18.505,0,0,0,6.986-1.545,9.6,9.6,0,0,0,6.852,3.018c.307.018.605.026.893.026a15.022,15.022,0,0,0,3.332-.358.677.677,0,0,0,.283-1.151,64.271,64.271,0,0,0-6.926-5.226V32.2a.677.677,0,0,0-.9-.63,7.216,7.216,0,0,0-4.619,5.29l-4.8-.267,7.968-15.165a.67.67,0,1,0-1.187-.624L17,25.234c-.021,0-.041.007-.062.013a6.486,6.486,0,0,1-8.1-6.276c0-.192.007-.385.025-.576a3.229,3.229,0,0,0,.052-.549A17.684,17.684,0,0,1,12.3,16.41a14.294,14.294,0,0,1,9.341.006l-1.189,2.263a.67.67,0,1,0,1.187.624s2.654-5.583,4.194-8.006c1.86-2.927,3.534-4.3,4.714-3.853a1.152,1.152,0,0,1,.661.679c.749,1.721-.176,6.082-2.476,11.666-.978,2.375-.818,4.954.4,6.418a2.694,2.694,0,0,0,2.627.975c2.112-.442,4.026-3.292,5.389-8.024.057-.2.119-.407.185-.628A4.6,4.6,0,0,0,40.2,9.965c1.588-4.487,3.084-8.5,3.274-8.987A.67.67,0,0,0,43.092.112ZM15.321,26.792a7.885,7.885,0,0,0,.891-.051L10.878,36.893a.67.67,0,0,0,.556.981l6.435.358a.674.674,0,0,0,.7-.606,5.994,5.994,0,0,1,2.953-4.387V37.2a.671.671,0,0,0,.31.566,67.872,67.872,0,0,1,5.982,4.37c-2.145.238-6.3.232-8.666-2.842a.67.67,0,0,0-.831-.191c-.048.024-4.84,2.383-9.2,1.377A9.517,9.517,0,0,1,2.3,35.139c-1.532-3.333-1.223-7.657.824-11.567A13.781,13.781,0,0,1,7.5,18.728c0,.081,0,.162,0,.243A7.83,7.83,0,0,0,15.321,26.792ZM40.735,15.625l-5.957-2.508a3.254,3.254,0,0,1,.611-1.2l5.777,2.433A3.239,3.239,0,0,1,40.735,15.625Zm-6.017-1.079,5.036,2.12a3.26,3.26,0,0,1-5.036-2.12Zm6.264-1.727-4.369-1.839a3.26,3.26,0,0,1,4.369,1.839Z" transform="translate(0)" fill="#4e4466"/>
    <path id="Path_478" data-name="Path 478" d="M41.113,288.375a1.117,1.117,0,1,1-1.776-1.356.67.67,0,0,0-1.066-.813,2.458,2.458,0,0,0,3.908,2.982.67.67,0,1,0-1.066-.813Z" transform="translate(-34.557 -261.576)" fill="#4e4466"/>
    <path id="Path_479" data-name="Path 479" d="M97.621,327.5a2.46,2.46,0,0,0,3.445-.463.67.67,0,0,0-1.066-.813,1.117,1.117,0,0,1-1.776-1.356.67.67,0,0,0-1.066-.813A2.461,2.461,0,0,0,97.621,327.5Z" transform="translate(-88.439 -296.212)" fill="#4e4466"/>
    <path id="Path_480" data-name="Path 480" d="M49.631,351.608a1.117,1.117,0,1,1-1.776-1.356.67.67,0,0,0-1.066-.813,2.458,2.458,0,0,0,3.908,2.982.67.67,0,0,0-1.066-.813Z" transform="translate(-42.352 -319.434)" fill="#4e4466"/>
    <path id="Path_481" data-name="Path 481" d="M220.093,13.226a.675.675,0,0,0,.615-.1c.7-.522,4.236-3.206,4.784-4.818a3.531,3.531,0,1,0-6.685-2.272c-.548,1.612.618,5.894.857,6.735A.67.67,0,0,0,220.093,13.226Zm-.017-6.756a2.212,2.212,0,0,1,1.875-1.476,2.19,2.19,0,0,1,2.271,2.886h0c-.269.792-2.068,2.409-3.525,3.566C220.233,9.574,219.819,7.228,220.076,6.47Z" transform="translate(-200.075 -3.274)" fill="#4e4466"/>
    <path id="Path_482" data-name="Path 482" d="M338.488,361.967c-1.619-.525-5.884.7-6.723.952a.677.677,0,0,0-.34,1.049c.532.7,3.266,4.19,4.885,4.716h0a3.531,3.531,0,0,0,2.178-6.717Zm.994,4.034a2.192,2.192,0,0,1-2.758,1.408h0c-.8-.258-2.438-2.034-3.615-3.474,1.865-.492,4.205-.939,4.966-.692A2.192,2.192,0,0,1,339.482,366Z" transform="translate(-303.13 -331.02)" fill="#4e4466"/>
    <path id="Path_483" data-name="Path 483" d="M24.085,69.053a.677.677,0,0,0,.8-.761c-.137-.865-.878-5.24-2.052-6.472a3.531,3.531,0,1,0-5.112,4.871C18.894,67.923,23.228,68.875,24.085,69.053Zm-5.32-6.383a2.193,2.193,0,0,1,3.1.075c.577.606,1.176,2.949,1.526,4.776-1.808-.438-4.12-1.149-4.7-1.755A2.192,2.192,0,0,1,18.765,62.67Z" transform="translate(-15.323 -55.504)" fill="#4e4466"/>
  </g>
</svg>
