<svg id="man" xmlns="http://www.w3.org/2000/svg" xmlns:xlink="http://www.w3.org/1999/xlink" width="50" height="50" viewBox="0 0 50 50">
  <defs>
    <clipPath id="clip-path">
      <circle id="Ellipse_25" data-name="Ellipse 25" cx="25" cy="25" r="25"/>
    </clipPath>
    <clipPath id="clip-path-12">
      <circle id="Ellipse_37" data-name="Ellipse 37" cx="25" cy="25" r="25" fill="#afafaf"/>
    </clipPath>
  </defs>
  <g id="Group_115" data-name="Group 115">
    <circle id="Ellipse_24" data-name="Ellipse 24" cx="25" cy="25" r="25" transform="translate(0 0)" fill="#f72585"/>
    <g id="Group_100" data-name="Group 100" transform="translate(0 0)" clip-path="url(#clip-path)">
      <path id="Path_413" data-name="Path 413" d="M74.464,22.052v8.309c0,.12,0,.24-.006.361-.005.249-.019.5-.041.743-.005.085-.014.169-.025.254-.036.352-.085.7-.147,1.044-.022.115-.044.227-.069.339a.476.476,0,0,1-.014.068c-.022.115-.049.227-.077.339-.011.06-.027.12-.041.18s-.027.1-.044.156c-.058.224-.123.443-.192.661-.033.1-.065.2-.1.309,0,.011-.008.022-.011.033l-.1.279c-.011.027-.022.054-.033.085-.033.087-.065.175-.1.262-.041.107-.085.21-.128.314s-.079.186-.12.279c-.005.016-.014.03-.019.046-.047.1-.09.2-.137.292s-.1.2-.148.3c-.1.2-.2.4-.311.593l-.148.262a16.061,16.061,0,0,1-1.4,2.033c-.069.09-.139.178-.213.262-.1.123-.205.243-.309.361s-.186.208-.281.309c-.262.281-.53.549-.8.8-.054.055-.112.1-.17.156-.093.085-.186.167-.281.246-.074.066-.15.128-.227.191-.2.161-.393.317-.593.462-.082.063-.167.123-.251.18-.137.1-.276.191-.415.281-.077.052-.156.1-.235.147-.279.172-.56.331-.839.467-.068.035-.137.068-.2.1s-.139.066-.213.1q-.136.061-.271.115a.85.85,0,0,1-.107.041c-.106.044-.216.085-.322.12-.134.049-.271.09-.4.128-.093.027-.188.052-.281.074a.038.038,0,0,1-.019.006c-.093.022-.186.044-.279.06a.65.65,0,0,1-.074.014c-.077.014-.153.027-.23.036-.109.016-.218.03-.328.036a.79.79,0,0,1-.112.008c-.087.006-.175.008-.26.008h-.008q-.127,0-.254-.008a.588.588,0,0,1-.1-.008c-.076,0-.156-.011-.238-.022a.339.339,0,0,1-.052-.005c-.1-.014-.2-.03-.306-.049-.087-.014-.175-.033-.265-.055a7.835,7.835,0,0,1-1.434-.484,10.457,10.457,0,0,1-1.254-.661c-.21-.128-.421-.265-.628-.41-.1-.074-.208-.147-.311-.224Q58,42.02,57.523,41.6c-.087-.079-.175-.158-.262-.241s-.175-.161-.26-.24q-.32-.307-.623-.639-.119-.127-.238-.262c-.218-.246-.432-.5-.634-.765-.079-.1-.153-.194-.227-.292q-.414-.549-.784-1.145c-.065-.107-.131-.216-.194-.322-.077-.128-.15-.259-.224-.391a14.9,14.9,0,0,1-.743-1.53c-.033-.077-.066-.153-.093-.229-.044-.1-.082-.2-.117-.3q-.082-.217-.156-.434c-.049-.145-.1-.292-.142-.44s-.085-.284-.123-.429-.085-.309-.12-.467c0-.016-.008-.033-.011-.049q-.078-.328-.139-.664c-.055-.3-.1-.6-.131-.9-.014-.1-.022-.191-.03-.287s-.019-.2-.024-.3c-.014-.183-.022-.369-.028-.555,0-.12-.006-.241-.006-.361V22.052A11.124,11.124,0,0,1,63.329,10.929h.011A11.245,11.245,0,0,1,65.8,11.2a11.135,11.135,0,0,1,8.659,10.85Z" transform="translate(-38.338 -8.025)" fill="#ecc19c"/>
    </g>
    <g id="Group_101" data-name="Group 101" transform="translate(0 0)" clip-path="url(#clip-path)">
      <path id="Path_414" data-name="Path 414" d="M68.524,143.284v0H39.538v0a14.42,14.42,0,0,1,.773-4.68q.135-.4.295-.787v0c.106-.26.218-.514.339-.765a14.346,14.346,0,0,1,1.765-2.814c.175-.216.352-.426.536-.628.09-.1.186-.2.281-.306s.191-.2.29-.295a14.423,14.423,0,0,1,1.566-1.35c.276-.2.555-.4.844-.582s.585-.358.885-.522a.017.017,0,0,1,.011-.005c.117-.063.232-.131.347-.2.227-.137.451-.284.664-.442.109-.077.213-.156.317-.24.246-.2.483-.407.71-.628.074-.074.148-.147.221-.224.153-.159.3-.325.437-.495.069-.082.137-.167.2-.251s.128-.172.191-.26a9.092,9.092,0,0,0,1.7-5.314l2.112.011,2.172.011a9.146,9.146,0,0,0,3.435,7.153c.1.082.2.161.3.235s.2.145.3.213c.022.016.041.03.063.044.1.066.2.131.3.191s.227.137.341.2a.134.134,0,0,1,.049.025c.241.134.478.273.711.418.112.068.224.139.333.219q.34.221.664.467a0,0,0,0,0,0,0h0a14.632,14.632,0,0,1,1.563,1.35A14.421,14.421,0,0,1,68.524,143.284Z" transform="translate(-29.031 -89.938)" fill="#ecc19c"/>
    </g>
    <g id="Group_102" data-name="Group 102" transform="translate(0 0)" clip-path="url(#clip-path)">
      <path id="Path_415" data-name="Path 415" d="M68.525,163.088H39.539a14.426,14.426,0,0,1,.773-4.68q.135-.4.295-.787s0,0,0,0c.1-.26.218-.514.339-.765a14.346,14.346,0,0,1,1.765-2.814c.175-.216.353-.426.536-.629.09-.1.186-.2.281-.306s.191-.2.29-.295a14.393,14.393,0,0,1,1.566-1.35c.276-.2.555-.4.844-.582s.585-.361.885-.525a.01.01,0,0,1,.011,0v0c.117-.066.232-.131.347-.2a8.443,8.443,0,0,0,.976-.689l.006.005a7.787,7.787,0,0,0,5.571,2.352h.022a7.8,7.8,0,0,0,5.585-2.35l0,0a7.319,7.319,0,0,0,.6.451c.022.016.041.03.063.044.1.066.2.128.3.191s.227.134.341.2a.266.266,0,0,1,.049.024c.241.134.478.273.711.421.112.068.224.139.333.219.227.145.448.3.664.467H62.7a14.512,14.512,0,0,1,5.822,11.61Z" transform="translate(-29.032 -109.741)" fill="#d0cbdb"/>
    </g>
    <g id="Group_104" data-name="Group 104" transform="translate(0 0)" clip-path="url(#clip-path)">
      <path id="Path_417" data-name="Path 417" d="M72.1,15.194a15.3,15.3,0,0,1-2.087,3.415c-.049.06-.1.12-.15.18a15.316,15.316,0,0,1-6.527,4.6,14.885,14.885,0,0,1-2.087.6q-.717.151-1.459.238a15.818,15.818,0,0,1-1.735.1,15.256,15.256,0,0,1-1.978-.128,14.432,14.432,0,0,1-1.861-.355c-.347-.087-.686-.188-1.022-.3s-.653-.23-.973-.361V22.055A11.124,11.124,0,0,1,63.332,10.932h.011a11.245,11.245,0,0,1,2.464.273A11.157,11.157,0,0,1,72.1,15.194Z" transform="translate(-38.34 -8.027)" fill="#543e36"/>
    </g>
    <g id="Group_105" data-name="Group 105" transform="translate(0 0)" clip-path="url(#clip-path)">
      <path id="Path_418" data-name="Path 418" d="M117.767,24.731V26.92a17.055,17.055,0,0,1-4.6-5.443s0-.008-.006-.011a16.947,16.947,0,0,1-1.97-6.888,11.133,11.133,0,0,1,6.576,10.153Z" transform="translate(-81.642 -10.704)" fill="#543e36"/>
    </g>
    <g id="Group_106" data-name="Group 106" transform="translate(0 0)" clip-path="url(#clip-path)">
      <path id="Path_419" data-name="Path 419" d="M53.518,55.137c-.117.2-.224.415-.331.631-.041.085-.082.175-.123.262a9.261,9.261,0,0,0-.847,3.432c0,.03,0,.063,0,.093V55.271c0-.153.006-.3.006-.451C52.652,54.932,53.084,55.041,53.518,55.137Z" transform="translate(-38.339 -40.252)" fill="#543e36"/>
    </g>
    <g id="Group_107" data-name="Group 107" transform="translate(0 0)" clip-path="url(#clip-path)">
      <path id="Path_420" data-name="Path 420" d="M131.054,55.14c.165.29.313.588.454.893a9.155,9.155,0,0,1,.85,3.526V55.273c0-.151-.006-.3-.006-.449C131.921,54.935,131.491,55.043,131.054,55.14Z" transform="translate(-96.227 -40.255)" fill="#543e36"/>
    </g>
    <g id="Group_108" data-name="Group 108" transform="translate(0 0)" clip-path="url(#clip-path)">
      <path id="Path_421" data-name="Path 421" d="M76.739,59.071a.094.094,0,0,0-.082-.093,29.78,29.78,0,0,0-4.068-.3,45.85,45.85,0,0,0-5.437.678h-.432c-.227,0-.954-.147-1.883-.3a22.642,22.642,0,0,0-3.555-.374A29.893,29.893,0,0,0,57.8,58.9c-.279.033-.484.063-.59.079a.094.094,0,0,0-.082.093l-.022,1.161a.1.1,0,0,0,.063.093l.131.047c.194.074.178,3.574,1.221,4.448.62.516,1.172.811,3.5.811a3.272,3.272,0,0,0,3-1.448,10.775,10.775,0,0,0,1.093-2.62.911.911,0,0,1,.812-.825h.011a.9.9,0,0,1,.822.825,10.786,10.786,0,0,0,1.093,2.62,3.271,3.271,0,0,0,3,1.448c2.325,0,2.877-.295,3.5-.811,1.044-.874,1.027-4.374,1.221-4.448l.131-.047a.1.1,0,0,0,.063-.093ZM65.02,63.213a3.052,3.052,0,0,1-2.467,1.915c-3.73.188-3.9-.853-4.142-1.678a5.679,5.679,0,0,1-.21-2.374c.1-.825.306-1.309.681-1.552a1.7,1.7,0,0,1,.784-.271,14.973,14.973,0,0,1,2.055-.1,10.337,10.337,0,0,1,1.658.128c1.328.213,2.224.664,2.224,1.109A8.279,8.279,0,0,1,65.02,63.213Zm10.44.238c-.24.825-.412,1.866-4.142,1.678a3.052,3.052,0,0,1-2.467-1.915,8.272,8.272,0,0,1-.582-2.817c0-.612,1.7-1.238,3.882-1.238s2.533.164,2.839.366c.374.243.582.727.68,1.552A5.669,5.669,0,0,1,75.46,63.451Z" transform="translate(-41.933 -43.082)" fill="#1a1a1a"/>
    </g>
    <g id="Group_116" data-name="Group 116">
      <g id="Group_103" data-name="Group 103" transform="translate(0 0)" clip-path="url(#clip-path)">
        <path id="Path_416" data-name="Path 416" d="M74.463,84.049c0,.12,0,.241-.006.361-.005.249-.019.5-.041.743-.005.085-.014.169-.025.254-.036.352-.084.7-.147,1.044-.022.115-.044.227-.069.339a.476.476,0,0,1-.014.068c-.022.115-.049.227-.077.339-.014.066-.03.128-.049.191a1.226,1.226,0,0,1-.035.145c-.058.224-.123.443-.192.661-.033.1-.065.2-.1.309,0,.011-.008.022-.011.033l-.1.279c-.011.027-.022.054-.033.085-.033.087-.065.175-.1.262-.041.107-.085.21-.128.314s-.079.186-.12.279c-.005.016-.014.03-.019.046-.047.1-.09.2-.137.292s-.1.2-.148.3c-.1.2-.2.4-.311.593l-.148.262a16.062,16.062,0,0,1-1.4,2.033c-.069.09-.139.178-.213.262-.1.123-.205.243-.309.361s-.186.208-.281.309c-.262.281-.53.549-.8.8-.054.055-.112.1-.17.156-.093.085-.185.167-.281.246-.074.066-.15.128-.227.191-.2.161-.393.317-.593.462-.082.063-.167.123-.251.18-.137.1-.276.191-.415.281-.077.052-.156.1-.235.147-.279.172-.56.331-.839.467-.068.035-.137.068-.2.1s-.139.066-.213.1q-.136.061-.271.115a.852.852,0,0,1-.107.041c-.106.044-.216.085-.322.12-.134.049-.271.09-.4.128-.093.027-.188.052-.281.074a.038.038,0,0,1-.019.006c-.093.022-.186.044-.279.06a.654.654,0,0,1-.074.014c-.077.014-.153.027-.23.036-.109.016-.218.03-.328.036a.791.791,0,0,1-.112.008c-.087.006-.175.008-.26.008h-.008q-.127,0-.254-.008a.588.588,0,0,1-.1-.008c-.076,0-.156-.011-.238-.022a.34.34,0,0,1-.052-.005c-.1-.014-.2-.03-.306-.049-.087-.014-.175-.033-.265-.055a7.834,7.834,0,0,1-1.434-.484,10.456,10.456,0,0,1-1.254-.661c-.21-.126-.418-.262-.628-.41-.1-.074-.208-.147-.311-.224q-.488-.357-.965-.776c-.087-.079-.175-.158-.262-.241s-.175-.161-.26-.24q-.32-.307-.623-.639-.119-.127-.238-.262c-.218-.246-.432-.5-.634-.765-.079-.1-.153-.194-.227-.292q-.414-.549-.784-1.145c-.065-.107-.131-.216-.194-.322-.077-.128-.15-.259-.224-.391a14.9,14.9,0,0,1-.743-1.53c-.033-.077-.066-.153-.093-.229-.044-.1-.082-.2-.117-.3q-.082-.217-.156-.434c-.049-.145-.1-.292-.142-.44s-.085-.284-.123-.429-.085-.309-.12-.467c0-.016-.008-.033-.011-.049q-.078-.328-.139-.664c-.055-.3-.1-.6-.131-.9-.014-.1-.022-.191-.03-.287s-.019-.2-.024-.3c-.014-.183-.022-.369-.028-.555,0-.12-.006-.24-.006-.361l1.776,3.492,3.052,1.331,3.609.325,2.678.243h.016l2.505.227,5.582.5Z" transform="translate(-38.338 -61.713)" fill="#543e36"/>
      </g>
      <g id="Group_109" data-name="Group 109" transform="translate(0 0)" clip-path="url(#clip-path)">
        <path id="Path_422" data-name="Path 422" d="M63.352,76.783l0,2.694,0,.943v.74l0,2.459v0l0,0h0l-.008-.006-10.746-5.47c0-.016-.008-.033-.011-.049q-.078-.328-.139-.664c-.055-.3-.1-.6-.131-.9-.014-.1-.022-.191-.03-.287s-.019-.2-.024-.3c-.014-.183-.022-.369-.028-.555,0-.12-.006-.241-.006-.361V71.764c0,.047,0,.093,0,.139a10.873,10.873,0,0,0,.391,2.546,11.052,11.052,0,0,0,.7,1.877v0c.716,1.489,1.675,2.5,2.557,2.664.055.008.112.014.167.019a9.607,9.607,0,0,0,1.068.06c1.393,0,2.631-1.12,3.41-1.574l.016-.008c.041-.025.082-.049.117-.074a.209.209,0,0,1,.033-.019,5.526,5.526,0,0,1,2.656-.615h.022Z" transform="translate(-38.339 -52.693)" fill="#543e36"/>
        <path id="Path_423" data-name="Path 423" d="M105.177,71.764l0,3.265a13.4,13.4,0,0,1-.218,2.4c-.058.311-.123.62-.2.926L102.235,82l-8.18,1.62h0l0,0v0l-.008-6.837h.022a5.541,5.541,0,0,1,2.659.615.2.2,0,0,1,.03.019c.038.025.079.049.12.074a.054.054,0,0,0,.014.008c.782.454,2.016,1.575,3.41,1.575a9.6,9.6,0,0,0,1.068-.06c.057-.006.112-.011.17-.019.88-.164,1.842-1.175,2.555-2.664v0a11.053,11.053,0,0,0,.7-1.877,10.753,10.753,0,0,0,.391-2.582C105.177,71.832,105.177,71.8,105.177,71.764Z" transform="translate(-69.05 -52.693)" fill="#543e36"/>
      </g>
    </g>
    <g id="Group_110" data-name="Group 110" clip-path="url(#clip-path)">
      <ellipse id="Ellipse_35" data-name="Ellipse 35" cx="2.725" cy="0.842" rx="2.725" ry="0.842" transform="translate(22.275 26.783)" fill="#ecc19c"/>
    </g>
    <g id="Group_111" data-name="Group 111" transform="translate(0 0)" clip-path="url(#clip-path-12)">
      <path id="Path_424" data-name="Path 424" d="M60.923,155.174V170.2H59.762V156.021c.156-.126.311-.249.47-.366C60.459,155.486,60.688,155.327,60.923,155.174Z" transform="translate(-43.88 -113.937)" fill="#afafaf"/>
      <path id="Path_425" data-name="Path 425" d="M124.021,155.185v15.027h1.161v-14.18Z" transform="translate(-91.063 -113.945)" fill="#afafaf"/>
    </g>
    <g id="Group_114" data-name="Group 114" transform="translate(0 0)" clip-path="url(#clip-path)">
      <g id="Group_112" data-name="Group 112" transform="translate(21.821 40.317)">
        <path id="Path_426" data-name="Path 426" d="M82.113,151.713l3.179,3.81,3.179-3.81Z" transform="translate(-82.113 -151.713)" fill="#4e3540"/>
        <path id="Path_427" data-name="Path 427" d="M88.881,177.123H87l1.358-17.486c.057.222.986.222,1.044,0l1.358,17.486Z" transform="translate(-85.702 -157.531)" fill="#4e3540"/>
      </g>
      <g id="Group_113" data-name="Group 113" transform="translate(19.1 37.855)">
        <path id="Path_428" data-name="Path 428" d="M77.771,144.92l-.008.014,0,.006-1.32,2.216-1.232,2.065-3.336-4.637c.107-.077.213-.158.314-.243l.006.006a9.089,9.089,0,0,0,1.76-1.858l3.812,2.426Z" transform="translate(-71.872 -142.477)" fill="#e5e3ea"/>
        <path id="Path_429" data-name="Path 429" d="M99.971,144.553l-3.336,4.637L95.4,147.124l-1.323-2.216-.011-.019,3.836-2.442a9.165,9.165,0,0,0,1.762,1.871C99.769,144.4,99.87,144.48,99.971,144.553Z" transform="translate(-88.17 -142.447)" fill="#e5e3ea"/>
      </g>
    </g>
  </g>
</svg>
