<svg xmlns="http://www.w3.org/2000/svg" width="42.003" height="42.002" viewBox="0 0 42.003 42.002">
  <g id="tent" transform="translate(-0.001 -0.005)">
    <g id="Group_120" data-name="Group 120" transform="translate(14.721 0.619)">
      <path id="Path_430" data-name="Path 430" d="M185.133,10.874l-2.9-2.9a1.641,1.641,0,1,0-2.32,2.32l5.8,5.8,5.8-5.8a1.641,1.641,0,1,0-2.32-2.32l-2.9,2.9A.82.82,0,0,1,185.133,10.874Z" transform="translate(-179.432 -7.493)" fill="#7209b7"/>
    </g>
    <g id="Group_121" data-name="Group 121" transform="translate(0.616 7.182)">
      <path id="Path_431" data-name="Path 431" d="M46.628,121.7H9.142a1.641,1.641,0,0,1-1.468-2.374L23.138,88.4a1.641,1.641,0,0,1,1.468-.907h6.559a1.641,1.641,0,0,1,1.468.907L48.1,119.328A1.641,1.641,0,0,1,46.628,121.7Z" transform="translate(-7.499 -87.493)" fill="#f72585"/>
    </g>
    <g id="Group_122" data-name="Group 122" transform="translate(0.616 7.182)" opacity="0.34">
      <path id="Path_432" data-name="Path 432" d="M12.992,119.327,28.456,88.4a1.641,1.641,0,0,1,1.468-.907H24.606a1.641,1.641,0,0,0-1.468.907L7.674,119.327A1.641,1.641,0,0,0,9.142,121.7h5.317a1.641,1.641,0,0,1-1.468-2.374Z" transform="translate(-7.499 -87.492)" fill="#fff"/>
    </g>
    <g id="Group_123" data-name="Group 123" transform="translate(10.679 23.59)">
      <path id="Path_433" data-name="Path 433" d="M141.909,287.493h-2.844l-8.9,17.8H150.81Z" transform="translate(-130.164 -287.493)" fill="#a8e0e2"/>
    </g>
    <g id="Group_124" data-name="Group 124" transform="translate(10.679 23.59)" opacity="0.34">
      <path id="Path_434" data-name="Path 434" d="M141.909,287.493h-2.844l-8.9,17.8h4.488l8.079-16.159Z" transform="translate(-130.164 -287.493)" fill="#fff"/>
    </g>
    <g id="Group_125" data-name="Group 125" transform="translate(5.62 21.949)">
      <path id="Path_435" data-name="Path 435" d="M97.622,270.774H70.14a1.641,1.641,0,1,1,0-3.281H97.622a1.641,1.641,0,1,1,0,3.281Z" transform="translate(-68.499 -267.493)" fill="#7209b7"/>
    </g>
    <g id="Group_126" data-name="Group 126" transform="translate(5.62 21.949)" opacity="0.34">
      <path id="Path_436" data-name="Path 436" d="M74.252,269.134a1.641,1.641,0,0,1,1.641-1.641H70.14a1.641,1.641,0,1,0,0,3.281h5.753A1.641,1.641,0,0,1,74.252,269.134Z" transform="translate(-68.499 -267.493)" fill="#fff"/>
    </g>
    <g id="Group_127" data-name="Group 127" transform="translate(9.722 12.925)">
      <path id="Path_437" data-name="Path 437" d="M139.418,160.774H120.14a1.641,1.641,0,1,1,0-3.281h19.279a1.641,1.641,0,0,1,0,3.281Z" transform="translate(-118.499 -157.493)" fill="#7209b7"/>
    </g>
    <g id="Group_128" data-name="Group 128" transform="translate(9.722 12.925)" opacity="0.34">
      <path id="Path_438" data-name="Path 438" d="M124.657,159.134a1.641,1.641,0,0,1,1.641-1.641h-6.157a1.641,1.641,0,1,0,0,3.281H126.3A1.641,1.641,0,0,1,124.657,159.134Z" transform="translate(-118.5 -157.493)" fill="#fff"/>
    </g>
    <path id="Path_439" data-name="Path 439" d="M41.763,38.742,35.282,25.78a2.256,2.256,0,0,0-.539-4.446H33.059L30.8,16.816a2.256,2.256,0,0,0-.158-4.506H28.547L26.3,7.814A2.241,2.241,0,0,0,24.513,6.58l2.725-2.725A2.256,2.256,0,0,0,24.048.665l-2.9,2.9a.205.205,0,0,1-.29,0l-2.9-2.9a2.256,2.256,0,0,0-3.19,3.191L17.491,6.58A2.241,2.241,0,0,0,15.7,7.814l-2.248,4.5H11.363a2.256,2.256,0,0,0-.158,4.506L8.945,21.334H7.261a2.256,2.256,0,0,0-.539,4.446L.241,38.742a2.256,2.256,0,0,0,2.018,3.265H39.745a2.256,2.256,0,0,0,2.018-3.265ZM15.636,1.535a1.027,1.027,0,0,1,1.45,0l2.9,2.9a1.437,1.437,0,0,0,2.03,0l2.9-2.9a1.025,1.025,0,0,1,1.45,1.45L22.786,6.567H19.218L15.636,2.985a1.027,1.027,0,0,1,0-1.45Zm-5.3,13.031a1.027,1.027,0,0,1,1.025-1.025H22.379a.615.615,0,0,0,0-1.231H14.833l1.973-3.945a1.02,1.02,0,0,1,.917-.567h6.559a1.02,1.02,0,0,1,.917.567l1.973,3.945H24.84a.615.615,0,0,0,0,1.231h5.8a1.025,1.025,0,0,1,0,2.051H11.363a1.027,1.027,0,0,1-1.025-1.025Zm2.24,2.256h16.85l2.256,4.512H10.321ZM6.235,23.59a1.027,1.027,0,0,1,1.025-1.025H34.743a1.025,1.025,0,0,1,0,2.051H7.261A1.027,1.027,0,0,1,6.235,23.59ZM1.386,40.29a1.006,1.006,0,0,1-.045-1L8.065,25.846h9.7L10.3,40.777H2.259a1.006,1.006,0,0,1-.872-.486Zm39.231,0a1.006,1.006,0,0,1-.872.486h-8.04l-3.182-6.364a.615.615,0,1,0-1.1.55l2.907,5.814H11.675L19.14,25.846h3.724l3.458,6.916a.615.615,0,0,0,1.1-.55L24.24,25.846h9.7l6.723,13.447a1.006,1.006,0,0,1-.045,1Z" fill="#4e4466"/>
    <g id="Group_132" data-name="Group 132" transform="translate(15.264 36.006)">
      <g id="Group_129" data-name="Group 129">
        <path id="Path_440" data-name="Path 440" d="M186.665,441.052a.615.615,0,0,1-.615-.615v-.984a.615.615,0,0,1,1.231,0v.984A.615.615,0,0,1,186.665,441.052Z" transform="translate(-186.05 -438.837)" fill="#4e4466"/>
      </g>
      <g id="Group_130" data-name="Group 130" transform="translate(10.246)">
        <path id="Path_441" data-name="Path 441" d="M311.563,441.052a.615.615,0,0,1-.615-.615v-.984a.615.615,0,0,1,1.231,0v.984A.615.615,0,0,1,311.563,441.052Z" transform="translate(-310.948 -438.837)" fill="#4e4466"/>
      </g>
      <g id="Group_131" data-name="Group 131" transform="translate(3.772 0.955)">
        <path id="Path_442" data-name="Path 442" d="M234,452.326a2.407,2.407,0,0,1-1.815-.826.615.615,0,0,1,.928-.808,1.175,1.175,0,0,0,1.774,0,.615.615,0,0,1,.928.808A2.407,2.407,0,0,1,234,452.326Z" transform="translate(-232.034 -450.48)" fill="#4e4466"/>
      </g>
    </g>
  </g>
</svg>
