<svg xmlns="http://www.w3.org/2000/svg" xmlns:xlink="http://www.w3.org/1999/xlink" width="274" height="274" viewBox="0 0 274 274">
  <defs>
    <linearGradient id="linear-gradient" x1="0.5" x2="0.5" y2="1" gradientUnits="objectBoundingBox">
      <stop offset="0" stop-color="#f72585"/>
      <stop offset="0.564" stop-color="#811598" stop-opacity="0"/>
      <stop offset="1" stop-color="#3a0ca3" stop-opacity="0"/>
    </linearGradient>
  </defs>
  <g id="Group_67" data-name="Group 67" transform="translate(-30.166 -104.166)">
    <circle id="Ellipse_19" data-name="Ellipse 19" cx="137" cy="137" r="137" transform="translate(30.166 104.166)" fill="url(#linear-gradient)"/>
    <g id="undraw_camping_noc8" transform="translate(44.784 176.219)">
      <path id="Path_128" data-name="Path 128" d="M902.116,430.673l5.36-5.363a95.432,95.432,0,0,0-2.062-10.558l-3.055,1.546,2.745-2.746c-1.138-4.29-2.162-7.058-2.162-7.058s-10.8,11-16.386,23.9l3.459,9.095-4.733-5.846a38.622,38.622,0,0,0-1.327,4.668c-3.416,15.963-.972,30.02,5.459,31.4s14.414-10.449,17.83-26.412a50.839,50.839,0,0,0,.528-15.486Z" transform="translate(-686.125 -322.96)" fill="#ded6f2"/>
      <path id="Path_129" data-name="Path 129" d="M925.957,484.407l7.361-1.82a95.443,95.443,0,0,0,3.692-10.1l-3.414-.255,3.769-.932c1.244-4.26,1.8-7.16,1.8-7.16s-14.935,3.834-26.383,11.992l-1.74,9.574-1.03-7.451a38.6,38.6,0,0,0-3.549,3.31c-11.176,11.9-16.35,25.2-11.556,29.7s17.74-1.494,28.916-13.393a50.84,50.84,0,0,0,8.457-12.984Z" transform="translate(-694.036 -365.554)" fill="#ded6f2"/>
      <path id="Path_130" data-name="Path 130" d="M671.738,183.627l1.808-14.193a180.09,180.09,0,0,0-15.268-13.377l-2.774,5.835.926-7.267c-6.65-5.089-11.376-8.038-11.376-8.038s-3.422,28.892,3.139,54.592l15.663,9.58L650.043,207.5a72.854,72.854,0,0,0,3.408,8.5c13.331,27.769,33.207,45.926,44.394,40.555s9.45-32.236-3.881-60c-4.133-8.609-10.4-16.68-17.09-23.722Z" transform="translate(-510.072 -130.901)" fill="#ded6f2"/>
      <path id="Path_131" data-name="Path 131" d="M796.674,152.918l8.884-11.215A180.071,180.071,0,0,0,799.4,122.36l-5.391,3.561,4.549-5.742c-3.062-7.794-5.584-12.761-5.584-12.761s-17.863,22.964-25.531,48.356l8.456,16.3-10.14-9.932a72.885,72.885,0,0,0-1.476,9.037c-2.942,30.662,4.688,56.48,17.041,57.665s24.752-22.711,27.694-53.373c.912-9.506-.284-19.657-2.368-29.141Z" transform="translate(-598.372 -101.957)" fill="#ded6f2"/>
      <path id="Path_132" data-name="Path 132" d="M165.019,203.685l-.9-14.892a187.8,187.8,0,0,0-18.236-10.746l-1.711,6.516-.46-7.625c-7.8-3.925-13.214-6.03-13.214-6.03s2.1,30.265,13.8,55.325l17.9,6.779-14.786-.663a75.973,75.973,0,0,0,5.139,8.047c19.042,25.866,42.926,40.616,53.347,32.945s3.433-34.859-15.609-60.726c-5.9-8.019-13.893-15.073-22.109-20.991Z" transform="translate(-130.499 -148.874)" fill="#ded6f2"/>
      <path id="Path_133" data-name="Path 133" d="M320.468,132.4l6.928-13.213a187.776,187.776,0,0,0-10.056-18.625l-4.833,4.693,3.547-6.765C311.406,91.1,307.86,86.5,307.86,86.5s-13.85,26.991-16.784,54.493L302.9,156.051l-12.314-8.211a75.989,75.989,0,0,0,.24,9.545c2.93,31.986,15.752,56.958,28.638,55.777S340.42,185.1,337.49,153.11c-.908-9.916-4.1-20.084-8.076-29.4Z" transform="translate(-248.755 -86.5)" fill="#ded6f2"/>
      <ellipse id="Ellipse_8" data-name="Ellipse 8" cx="9.137" cy="2.61" rx="9.137" ry="2.61" transform="translate(101.337 174.38)" fill="#e6e6e6"/>
      <ellipse id="Ellipse_9" data-name="Ellipse 9" cx="9.137" cy="2.61" rx="9.137" ry="2.61" transform="translate(200.797 184.561)" fill="#e6e6e6"/>
      <ellipse id="Ellipse_10" data-name="Ellipse 10" cx="9.137" cy="2.61" rx="9.137" ry="2.61" transform="translate(219.853 163.155)" fill="#e6e6e6"/>
      <ellipse id="Ellipse_11" data-name="Ellipse 11" cx="6.918" cy="1.977" rx="6.918" ry="1.977" transform="translate(184.612 156.853)" fill="#e6e6e6"/>
      <ellipse id="Ellipse_12" data-name="Ellipse 12" cx="4.568" cy="1.417" rx="4.568" ry="1.417" transform="translate(37.119 156.107)" fill="#e6e6e6"/>
      <ellipse id="Ellipse_13" data-name="Ellipse 13" cx="4.568" cy="1.417" rx="4.568" ry="1.417" transform="translate(19.107 172.031)" fill="#e6e6e6"/>
      <ellipse id="Ellipse_14" data-name="Ellipse 14" cx="4.568" cy="1.417" rx="4.568" ry="1.417" transform="translate(19.107 146.97)" fill="#e6e6e6"/>
      <path id="Path_134" data-name="Path 134" d="M425.535,407.34l-44.263-1.566L357.928,408l-39.88,3.8-15.008,1.431-34.756,11.591a.778.778,0,0,1-.974-1.013l0,0,6.028-15.942-.634-.467-16.587-12.188-.089-.065-21.508-3.279a1.8,1.8,0,0,1-1.206-2.814l32.756-47,17.214-24.7,1.867-2.681,71.606-.989,69.911,91.458a1.368,1.368,0,0,1-1.136,2.2Z" transform="translate(-206.237 -254.378)" fill="#f72585"/>
      <path id="Path_135" data-name="Path 135" d="M236.9,242.211l-29.221,88.913L191.09,318.936l9.953-53.162,17.163-24.755.049.058Z" transform="translate(-141.206 -178.101)" opacity="0.2"/>
      <path id="Path_136" data-name="Path 136" d="M367,418.725c-3.316,7.971-4.49,14.628-8.422,13.426-5.384-1.646.269-7.468,3.585-15.439s5.658-14.085,8.422-13.426C375.733,404.515,370.312,410.755,367,418.725Z" transform="translate(-297.389 -320.554)" fill="#3f3d56"/>
      <path id="Path_137" data-name="Path 137" d="M387.847,388.142a4.017,4.017,0,0,0-4.023-4.01c-.091,0-.18,0-.269.01l-3.791-.468a4.009,4.009,0,0,0-1.355-.233c-.128,0-.253.007-.378.019l-.146-.018,0,.036a4.017,4.017,0,0,0-.849,7.753l-.008.072.373.042a4.022,4.022,0,0,0,1.025.131l.114,0,3.875.434a4.006,4.006,0,0,0,1.426.259,4.053,4.053,0,0,0,.543-.038l.33.037,0-.1A4.018,4.018,0,0,0,387.847,388.142Z" transform="translate(-310.728 -305.925)" fill="#6c63ff"/>
      <path id="Path_138" data-name="Path 138" d="M387.847,388.142a4.017,4.017,0,0,0-4.023-4.01c-.091,0-.18,0-.269.01l-3.791-.468a4.009,4.009,0,0,0-1.355-.233c-.128,0-.253.007-.378.019l-.146-.018,0,.036a4.017,4.017,0,0,0-.849,7.753l-.008.072.373.042a4.022,4.022,0,0,0,1.025.131l.114,0,3.875.434a4.006,4.006,0,0,0,1.426.259,4.053,4.053,0,0,0,.543-.038l.33.037,0-.1A4.018,4.018,0,0,0,387.847,388.142Z" transform="translate(-310.728 -305.925)" fill="#7209b7" opacity="0.2"/>
      <path id="Path_139" data-name="Path 139" d="M219.1,408.473l-.464-.243c11.884-22.651,45.5-71.047,45.835-71.534l.43.3C264.563,337.481,230.968,385.851,219.1,408.473Z" transform="translate(-195.628 -271.383)" fill="#3f3d56"/>
      <path id="Path_140" data-name="Path 140" d="M358.43,443.361l-.505-.138c.245-.9,24.587-90.19,33.039-105.252l.457.256C383,353.234,358.675,442.462,358.43,443.361Z" transform="translate(-298.556 -272.325)" fill="#3f3d56"/>
      <path id="Path_141" data-name="Path 141" d="M805.947,424.674c-12.977-21.378-61.985-87.586-62.479-88.253l.421-.312c.494.666,49.516,66.894,62.505,88.293Z" transform="translate(-583.453 -270.949)" fill="#3f3d56"/>
      <ellipse id="Ellipse_15" data-name="Ellipse 15" cx="1.834" cy="2.358" rx="1.834" ry="2.358" transform="translate(57.09 168.7) rotate(-0.092)" fill="#3f3d56"/>
      <ellipse id="Ellipse_16" data-name="Ellipse 16" cx="1.834" cy="2.358" rx="1.834" ry="2.358" transform="translate(21.75 133.391) rotate(-0.092)" fill="#3f3d56"/>
      <ellipse id="Ellipse_17" data-name="Ellipse 17" cx="1.834" cy="2.358" rx="1.834" ry="2.358" transform="translate(221.139 150.189) rotate(-0.092)" fill="#3f3d56"/>
      <path id="Path_142" data-name="Path 142" d="M386.414,263.779l98.839,1.059A30.6,30.6,0,0,0,454.64,234.5l-37.721.061a30.741,30.741,0,0,0-30.414,28.089Z" transform="translate(-319.608 -195.865)" fill="#7209b7"/>
      <path id="Path_143" data-name="Path 143" d="M607.42,471.814H571.3a3.32,3.32,0,0,0-3.323,3.362l.031,2.642.321,28.282.005.546.01.9.01.88.06,5.3a3.325,3.325,0,0,0,3.253,3.287c.089,0,.18,0,.271-.008l8.578-.522,12.41-.757,4.38-.266.976-.06,6.826-.415h0l2.511-.154a3.328,3.328,0,0,0,3.122-3.318V475.137A3.327,3.327,0,0,0,607.42,471.814Z" transform="translate(-453.771 -371.228)" opacity="0.2"/>
      <path id="Path_144" data-name="Path 144" d="M600.035,442.809a.888.888,0,0,0-.658.377l-3.98.006v-1.056a3.327,3.327,0,0,0-3.323-3.323H555.95a3.32,3.32,0,0,0-3.323,3.362l.013,1.085-2.567,0a.8.8,0,0,0-.539-.25c-.9,0-1.626,1.966-1.622,4.389s.736,4.385,1.636,4.383a.983.983,0,0,0,.754-.5l49.089-.079a.888.888,0,0,0,.659.375c.9,0,1.626-1.966,1.622-4.389S600.935,442.808,600.035,442.809Z" transform="translate(-438.947 -346.843)" fill="#6c63ff"/>
      <path id="Path_145" data-name="Path 145" d="M600.035,442.809a.888.888,0,0,0-.658.377l-3.98.006v-1.056a3.327,3.327,0,0,0-3.323-3.323H555.95a3.32,3.32,0,0,0-3.323,3.362l.013,1.085-2.567,0a.8.8,0,0,0-.539-.25c-.9,0-1.626,1.966-1.622,4.389s.736,4.385,1.636,4.383a.983.983,0,0,0,.754-.5l49.089-.079a.888.888,0,0,0,.659.375c.9,0,1.626-1.966,1.622-4.389S600.935,442.808,600.035,442.809Z" transform="translate(-438.947 -346.843)" fill="#7209b7" opacity="0.2"/>
      <path id="Path_146" data-name="Path 146" d="M717.094,649.479h0a2.123,2.123,0,0,1-3.334-.57l-1.964-3.771.781-1.693,4.21,2.695a2.123,2.123,0,0,1,.306,3.339Z" transform="translate(-560.05 -498.056)" fill="#ffb8b8"/>
      <path id="Path_147" data-name="Path 147" d="M749.472,746.387a1.758,1.758,0,0,0-1.773-1.571,1.78,1.78,0,0,0-1.739,1.348h0l-1.739,8.446a3.419,3.419,0,0,0-.089.753,3.586,3.586,0,0,0,7.136,0,3.457,3.457,0,0,0-.123-.9Z" transform="translate(-583.944 -572.964)" fill="#3f3d56"/>
      <path id="Path_148" data-name="Path 148" d="M788.222,750.165a3.994,3.994,0,0,0-.569-.416l-6.645-4.643a1.421,1.421,0,0,0-1.84.1,1.293,1.293,0,0,0-.191,1.644L784,753.439a3.5,3.5,0,0,0,.382.448,2.856,2.856,0,0,0,3.858,0A2.6,2.6,0,0,0,788.222,750.165Z" transform="translate(-609.538 -572.964)" fill="#3f3d56"/>
      <path id="Path_149" data-name="Path 149" d="M812.661,738.953h-6.729a.818.818,0,0,0-.849.78.89.89,0,0,0,.661.875l6.348,1.964a1.875,1.875,0,0,0,2.164-1.633C814.257,739.634,813.53,738.953,812.661,738.953Z" transform="translate(-628.984 -568.631)" fill="#3f3d56"/>
      <path id="Path_150" data-name="Path 150" d="M685.419,739.713a.835.835,0,0,0-.9-.78h-6.73a1.825,1.825,0,0,0-1.562,1.942,1.877,1.877,0,0,0,2.131,1.681l6.444-1.964A.809.809,0,0,0,685.419,739.713Z" transform="translate(-533.763 -568.614)" fill="#3f3d56"/>
      <path id="Path_151" data-name="Path 151" d="M706.431,745.119l-6.647,4.623a3.1,3.1,0,0,0-.573.416,2.516,2.516,0,0,0-.129,3.556q.062.067.129.129a2.809,2.809,0,0,0,3.857,0,2.937,2.937,0,0,0,.382-.447l5.021-6.557a1.26,1.26,0,0,0-.191-1.63A1.433,1.433,0,0,0,706.431,745.119Z" transform="translate(-550.157 -572.969)" fill="#3f3d56"/>
      <path id="Path_152" data-name="Path 152" d="M748.894,706.373a.714.714,0,0,0,.123-.384c0-.809-1.595-1.372-3.568-1.372s-3.568.563-3.568,1.372a.685.685,0,0,0,.089.32l1.739,3.589h0a2.176,2.176,0,0,0,1.739.573c.926,0,1.7-.293,1.773-.668Z" transform="translate(-582.281 -543.259)" fill="#3f3d56"/>
      <path id="Path_153" data-name="Path 153" d="M785.986,711.375a6,6,0,0,0-3.858,0,3.137,3.137,0,0,0-.382.191l-5.017,2.8c-.341.222-.261.516.191.7a3,3,0,0,0,1.84.041l6.645-1.973a5.68,5.68,0,0,0,.569-.177C787.019,712.607,787.032,711.818,785.986,711.375Z" transform="translate(-607.876 -548.017)" fill="#3f3d56"/>
      <path id="Path_154" data-name="Path 154" d="M812.008,724.3c0-.436-1.242-.785-2.165-.694l-6.348.835c-.379.053-.661.177-.661.372s.414.331.849.331h6.73C811.281,725.14,812.008,724.851,812.008,724.3Z" transform="translate(-627.322 -557.276)" fill="#3f3d56"/>
      <path id="Path_155" data-name="Path 155" d="M682.549,724.438l-6.444-.835c-.925-.091-2.131.278-2.131.714s.715.825,1.562.825h6.73c.468,0,.9-.128.9-.331S682.968,724.491,682.549,724.438Z" transform="translate(-532.101 -557.278)" fill="#3f3d56"/>
      <path id="Path_156" data-name="Path 156" d="M706.03,715.1c.47-.186.526-.466.191-.693l-5.021-2.786a2.635,2.635,0,0,0-.382-.19,5.869,5.869,0,0,0-3.857,0q-.067.026-.129.055c-.946.432-.889,1.109.129,1.511a4.4,4.4,0,0,0,.573.177l6.646,1.965A3.036,3.036,0,0,0,706.03,715.1Z" transform="translate(-548.494 -548.056)" fill="#3f3d56"/>
      <path id="Path_157" data-name="Path 157" d="M730.234,632.639c0,10.38-5.785,10.572-12.921,10.572s-18.853-2.053-12.921-10.572c6.256-8.985,16.988-26.11,12.921-27.017C717.312,605.622,730.234,622.259,730.234,632.639Z" transform="translate(-553.379 -470.106)" fill="#f9a825"/>
      <path id="Path_158" data-name="Path 158" d="M745.139,703.311c0,4.109-2.29,4.185-5.115,4.185s-7.463-.813-5.115-4.185c2.476-3.556,6.724-10.335,5.115-10.694C740.024,692.617,745.139,699.2,745.139,703.311Z" transform="translate(-576.655 -534.391)" fill="#ff6584" opacity="0.5"/>
      <path id="Path_159" data-name="Path 159" d="M611.742,605.722v1.856a3.328,3.328,0,0,1-3.122,3.318l-35.685,2.175a3.321,3.321,0,0,1-3.524-3.279l-.086-7.628,21.586-.35Z" transform="translate(-454.769 -467.292)" fill="#3f3d56"/>
      <path id="Path_160" data-name="Path 160" d="M652.932,575.018l-16.1-8.362a.589.589,0,0,1-.3-.381L633.04,552.2a3.379,3.379,0,0,1,2.163-4l.841-.294a1.452,1.452,0,0,1,1.879.982l3.442,12.392a.589.589,0,0,0,.192.3l13.117,10.868a.589.589,0,0,1,.11.787l-1.094,1.6A.589.589,0,0,1,652.932,575.018Z" transform="translate(-501.778 -427.394)" fill="#e6e6e6"/>
      <path id="Path_161" data-name="Path 161" d="M598.858,500.649c-7.808-4.111-15.982-6.175-24.742-4.948,2.641-4.476,4.6-8.613,4.471-11.711a6.1,6.1,0,0,1,2.392-5.194,7.4,7.4,0,0,1,4.411-1.456h0a6.062,6.062,0,0,1,4.49-.178,4.721,4.721,0,0,1,2.739,2.712,4.3,4.3,0,0,0,1.88,1.921,5.275,5.275,0,0,1,2.035,2.126,3.493,3.493,0,0,1-.149,3.707C599.408,490.8,599.416,495.576,598.858,500.649Z" transform="translate(-458.31 -374.923)" fill="#2f2e41"/>
      <circle id="Ellipse_18" data-name="Ellipse 18" cx="5.469" cy="5.469" r="5.469" transform="translate(124.009 104.5)" fill="#ffb8b8"/>
      <path id="Path_162" data-name="Path 162" d="M618.409,527.352l-6.381.651a38.656,38.656,0,0,0,0-9.767h6.381C617.2,522.365,617.3,525.307,618.409,527.352Z" transform="translate(-486.325 -405.532)" fill="#ffb8b8"/>
      <path id="Path_163" data-name="Path 163" d="M590.285,536.6q-.008.858-.036,1.7c-.133,4-.637,7.609-2.01,10.264a9.229,9.229,0,0,1-.995,1.553.045.045,0,0,1-.01.013,1.014,1.014,0,0,1-.086.1,7.393,7.393,0,0,1-.932.963l-2.613,2.741-.12.125-.762.509-3.926,2.616-9.429-5.067-.01-.88-.01-.9a28.681,28.681,0,0,0,4.234-11.233c.227-1.2.42-2.449.585-3.728.112-.885.211-1.788.3-2.7a1.445,1.445,0,0,1,.274-.781v0h0c.4-.512,1.2-.5,2.167-.553,1.355-.073,2.689-.775,3.887-.112a.724.724,0,0,1,.086.047l3.516,3.905,1.616-1.741.076-.081,3.328,1.425a1.536,1.536,0,0,1,.872,1.82Z" transform="translate(-454.784 -414.921)" fill="#e6e6e6"/>
      <path id="Path_164" data-name="Path 164" d="M582.893,611.187a5.283,5.283,0,0,1-.371,1.946l-.965,2.437-8.578.522c-.091.005-.183.008-.271.008a3.325,3.325,0,0,1-3.253-3.287l-.06-5.3-.01-.88,3.122,1.323,3.044-1.634a4.547,4.547,0,0,1,.509-.183,4.906,4.906,0,0,1,.689-.164h0c.112-.018.224-.034.337-.044a5.276,5.276,0,0,1,3.631.984,5.208,5.208,0,0,1,1.491,1.676,1.246,1.246,0,0,1,.076.141,5.1,5.1,0,0,1,.465,1.232A5.343,5.343,0,0,1,582.893,611.187Z" transform="translate(-454.814 -470.314)" fill="#2f2e41"/>
      <path id="Path_165" data-name="Path 165" d="M481.279,479.874l1.141,5.235,6.933,5.964-6.12-6.251Z" transform="translate(-355.642 -354.604)" opacity="0.2"/>
      <path id="Path_166" data-name="Path 166" d="M456.836,489.352l2.083,8.464,6.121,2.214-5.73-2.865Z" transform="translate(-337.58 -361.607)" opacity="0.2"/>
      <path id="Path_167" data-name="Path 167" d="M615.93,490.576c-4.031-1.855-8.588-2.383-12.632-.391l.521-4.688,8.855-1.432Z" transform="translate(-479.875 -380.281)" fill="#2f2e41"/>
      <path id="Path_168" data-name="Path 168" d="M561.409,560.831l-29.641-5.092.363-1.791,29.278,6.883Z" transform="translate(-392.951 -409.341)" fill="#3f3d56"/>
      <path id="Path_169" data-name="Path 169" d="M666.212,634.514h0a2.123,2.123,0,0,1-3.334-.57l-1.964-3.771.781-1.693,4.21,2.695a2.123,2.123,0,0,1,.306,3.339Z" transform="translate(-522.451 -486.998)" fill="#ffb8b8"/>
      <path id="Path_170" data-name="Path 170" d="M602.05,560.052l-16.1-8.362a.589.589,0,0,1-.3-.381l-3.492-14.075a3.379,3.379,0,0,1,2.163-4l.841-.294a1.452,1.452,0,0,1,1.879.982l3.442,12.392a.59.59,0,0,0,.192.3l13.117,10.868a.589.589,0,0,1,.11.787l-1.094,1.6A.59.59,0,0,1,602.05,560.052Z" transform="translate(-464.179 -416.335)" fill="#e6e6e6"/>
      <path id="Path_171" data-name="Path 171" d="M750.15,660.654a.549.549,0,0,0,.644-.43l.3-1.487a.547.547,0,0,0-.429-.644l-4.3-.86a.549.549,0,0,0-.644.43l-.3,1.487a.547.547,0,0,0,.429.644Z" transform="translate(-584.887 -508.237)" fill="#e6e6e6"/>
    </g>
  </g>
</svg>
